# Blender v3.5.1 OBJ File: 'LM.blend'
# www.blender.org
mtllib LM1.mtl
o Cube_Cube.001
v -1.000000 -1.000000 1.512836
v -1.000000 1.000000 1.512836
v -1.000000 -1.000000 1.654739
v -1.000000 1.000000 1.654739
v 1.000000 -1.000000 1.512836
v 1.000000 1.000000 1.512836
v 1.000000 -1.000000 1.654739
v 1.000000 1.000000 1.654739
vt 0.284383 0.016421
vt 0.164402 0.016421
vt 0.164402 0.136402
vt 0.284383 0.136402
vt 0.164402 0.256382
vt 0.284383 0.256382
vt 0.164402 0.376363
vt 0.284383 0.376363
vt 0.164402 0.496344
vt 0.044421 0.256382
vt 0.044421 0.376363
vt 0.404363 0.256382
vt 0.284383 0.496344
vt 0.404363 0.376363
vn -1.0000 0.0000 0.0000
vn 0.0000 0.0000 1.0000
vn 1.0000 0.0000 0.0000
vn 0.0000 0.0000 -1.0000
vn 0.0000 -1.0000 0.0000
vn 0.0000 1.0000 0.0000
usemtl None
s off
f 2/1/1 1/2/1 3/3/1
f 4/4/2 3/3/2 7/5/2
f 8/6/3 7/5/3 5/7/3
f 6/8/4 5/7/4 1/9/4
f 7/5/5 3/10/5 1/11/5
f 4/12/6 8/6/6 6/8/6
f 2/1/1 3/3/1 4/4/1
f 4/4/2 7/5/2 8/6/2
f 8/6/3 5/7/3 6/8/3
f 6/8/4 1/9/4 2/13/4
f 7/5/5 1/11/5 5/7/5
f 4/12/6 6/8/6 2/14/6
o Cube.001_Cube.002
v -1.000000 -1.000000 -1.663624
v -1.000000 1.000000 -1.663624
v -1.000000 -1.000000 -1.521722
v -1.000000 1.000000 -1.521722
v 1.000000 -1.000000 -1.663624
v 1.000000 1.000000 -1.663624
v 1.000000 -1.000000 -1.521722
v 1.000000 1.000000 -1.521722
vt 0.785818 0.036500
vt 0.691574 0.036500
vt 0.691574 0.137829
vt 0.785818 0.137829
vt 0.691574 0.239157
vt 0.785818 0.239157
vt 0.691574 0.340485
vt 0.785818 0.340485
vt 0.691574 0.441814
vt 0.597329 0.239157
vt 0.597329 0.340485
vt 0.880062 0.239157
vt 0.785818 0.441814
vt 0.880062 0.340485
vn -1.0000 0.0000 0.0000
vn 0.0000 0.0000 1.0000
vn 1.0000 0.0000 0.0000
vn 0.0000 0.0000 -1.0000
vn 0.0000 -1.0000 0.0000
vn 0.0000 1.0000 0.0000
usemtl None
s off
f 10/15/7 9/16/7 11/17/7
f 12/18/8 11/17/8 15/19/8
f 16/20/9 15/19/9 13/21/9
f 14/22/10 13/21/10 9/23/10
f 15/19/11 11/24/11 9/25/11
f 12/26/12 16/20/12 14/22/12
f 10/15/7 11/17/7 12/18/7
f 12/18/8 15/19/8 16/20/8
f 16/20/9 13/21/9 14/22/9
f 14/22/10 9/23/10 10/27/10
f 15/19/11 9/25/11 13/21/11
f 12/26/12 14/22/12 10/28/12
o Cube.002_Cube.003
v -1.000000 1.099185 -1.664193
v -1.000000 1.099185 1.663068
v -1.000000 0.957279 -1.664193
v -1.000000 0.957279 1.663068
v 1.000000 1.099185 -1.664193
v 1.000000 1.099185 1.663068
v 1.000000 0.957279 -1.664193
v 1.000000 0.957279 1.663068
vt 0.497855 0.637647
vt 0.443086 0.637647
vt 0.443086 0.705397
vt 0.497855 0.705397
vt 0.443086 0.773147
vt 0.497855 0.773147
vt 0.443086 0.840897
vt 0.497855 0.840897
vt 0.443086 0.908647
vt 0.388317 0.773147
vt 0.388317 0.840897
vt 0.552624 0.773147
vt 0.497855 0.908647
vt 0.552624 0.840897
vn -1.0000 0.0000 0.0000
vn 0.0000 -1.0000 -0.0000
vn 1.0000 0.0000 0.0000
vn 0.0000 1.0000 0.0000
vn 0.0000 0.0000 -1.0000
vn 0.0000 0.0000 1.0000
usemtl None
s off
f 18/29/13 17/30/13 19/31/13
f 20/32/14 19/31/14 23/33/14
f 24/34/15 23/33/15 21/35/15
f 22/36/16 21/35/16 17/37/16
f 23/33/17 19/38/17 17/39/17
f 20/40/18 24/34/18 22/36/18
f 18/29/13 19/31/13 20/32/13
f 20/32/14 23/33/14 24/34/14
f 24/34/15 21/35/15 22/36/15
f 22/36/16 17/37/16 18/41/16
f 23/33/17 17/39/17 21/35/17
f 20/40/18 22/36/18 18/42/18
o Cube.003_Cube.004
v -0.934557 1.007949 -1.664193
v -0.934557 1.007949 1.663068
v -1.076463 1.007949 -1.664193
v -1.076463 1.007949 1.663068
v -0.934557 -0.992051 -1.664193
v -0.934557 -0.992051 1.663068
v -1.076463 -0.992051 -1.664193
v -1.076463 -0.992051 1.663068
vt 0.471139 0.619710
vt 0.415665 0.619710
vt 0.415665 0.692737
vt 0.471139 0.692737
vt 0.415665 0.765765
vt 0.471139 0.765765
vt 0.415665 0.838792
vt 0.471139 0.838792
vt 0.415665 0.911819
vt 0.360192 0.765765
vt 0.360192 0.838792
vt 0.526612 0.765765
vt 0.471139 0.911819
vt 0.526612 0.838792
vn 0.0000 1.0000 0.0000
vn -1.0000 0.0000 -0.0000
vn 0.0000 -1.0000 0.0000
vn 1.0000 0.0000 0.0000
vn 0.0000 0.0000 -1.0000
vn 0.0000 0.0000 1.0000
usemtl None
s off
f 26/43/19 25/44/19 27/45/19
f 28/46/20 27/45/20 31/47/20
f 32/48/21 31/47/21 29/49/21
f 30/50/22 29/49/22 25/51/22
f 31/47/23 27/52/23 25/53/23
f 28/54/24 32/48/24 30/50/24
f 26/43/19 27/45/19 28/46/19
f 28/46/20 31/47/20 32/48/20
f 32/48/21 29/49/21 30/50/21
f 30/50/22 25/51/22 26/55/22
f 31/47/23 25/53/23 29/49/23
f 28/54/24 30/50/24 26/56/24
o Cube.004_Cube.005
v -1.000000 -0.969609 -1.664193
v -1.000000 -0.969609 1.663068
v -1.000000 -1.111516 -1.664193
v -1.000000 -1.111516 1.663068
v 1.000000 -0.969609 -1.664193
v 1.000000 -0.969609 1.663068
v 1.000000 -1.111516 -1.664193
v 1.000000 -1.111516 1.663068
vt 0.462641 0.605030
vt 0.409399 0.605030
vt 0.409399 0.681706
vt 0.462641 0.681706
vt 0.409399 0.758382
vt 0.462641 0.758382
vt 0.409399 0.835058
vt 0.462641 0.835058
vt 0.409399 0.911735
vt 0.356157 0.758382
vt 0.356157 0.835058
vt 0.515883 0.758382
vt 0.462641 0.911735
vt 0.515883 0.835058
vn -1.0000 0.0000 0.0000
vn 0.0000 -1.0000 0.0000
vn 1.0000 0.0000 0.0000
vn 0.0000 1.0000 0.0000
vn 0.0000 0.0000 -1.0000
vn 0.0000 0.0000 1.0000
usemtl None
s off
f 34/57/25 33/58/25 35/59/25
f 36/60/26 35/59/26 39/61/26
f 40/62/27 39/61/27 37/63/27
f 38/64/28 37/63/28 33/65/28
f 39/61/29 35/66/29 33/67/29
f 36/68/30 40/62/30 38/64/30
f 34/57/25 35/59/25 36/60/25
f 36/60/26 39/61/26 40/62/26
f 40/62/27 37/63/27 38/64/27
f 38/64/28 33/65/28 34/69/28
f 39/61/29 33/67/29 37/63/29
f 36/68/30 38/64/30 34/70/30
o Cube.005_Cube.006
v -0.388536 0.203274 1.032675
v -0.388536 1.017228 1.032675
v -0.388536 0.203274 0.432675
v -0.388536 1.017228 0.432675
v 0.211464 0.203274 1.032675
v 0.211464 1.017228 1.032675
v 0.211464 0.203274 0.432675
v 0.211464 1.017228 0.432675
vt 0.472415 0.580933
vt 0.424232 0.657354
vt 0.424232 0.580933
vt 0.472415 0.657354
vt 0.424232 0.733774
vt 0.472415 0.733774
vt 0.424232 0.810195
vt 0.472415 0.810195
vt 0.424232 0.886616
vt 0.376049 0.810195
vt 0.376049 0.733774
vt 0.520598 0.733774
vt 0.472415 0.886616
vt 0.520598 0.810195
vn -1.0000 0.0000 0.0000
vn 0.0000 0.0000 -1.0000
vn 1.0000 0.0000 0.0000
vn 0.0000 0.0000 1.0000
vn 0.0000 -1.0000 0.0000
vn 0.0000 1.0000 0.0000
usemtl None
s off
f 42/71/31 43/72/31 41/73/31
f 44/74/32 47/75/32 43/72/32
f 48/76/33 45/77/33 47/75/33
f 46/78/34 41/79/34 45/77/34
f 47/75/35 41/80/35 43/81/35
f 44/82/36 46/78/36 48/76/36
f 42/71/31 44/74/31 43/72/31
f 44/74/32 48/76/32 47/75/32
f 48/76/33 46/78/33 45/77/33
f 46/78/34 42/83/34 41/79/34
f 47/75/35 45/77/35 41/80/35
f 44/82/36 42/84/36 46/78/36
o Cube.006_Cube.007
v 0.247768 0.644756 0.039931
v 0.247768 1.044756 0.039931
v 0.247768 0.644756 -0.360069
v 0.247768 1.044756 -0.360069
v 0.638913 0.644756 0.039931
v 0.638913 1.044756 0.039931
v 0.638913 0.644756 -0.360069
v 0.638913 1.044756 -0.360069
vt 0.897117 0.597488
vt 0.841118 0.680396
vt 0.841118 0.597488
vt 0.897117 0.680396
vt 0.841118 0.763304
vt 0.897117 0.763304
vt 0.841118 0.846212
vt 0.897117 0.846212
vt 0.841118 0.929120
vt 0.785120 0.846212
vt 0.785120 0.763304
vt 0.953115 0.763304
vt 0.897117 0.929120
vt 0.953115 0.846212
vn -1.0000 0.0000 0.0000
vn 0.0000 0.0000 -1.0000
vn 1.0000 0.0000 0.0000
vn 0.0000 0.0000 1.0000
vn 0.0000 -1.0000 0.0000
vn 0.0000 1.0000 0.0000
usemtl None
s off
f 50/85/37 51/86/37 49/87/37
f 52/88/38 55/89/38 51/86/38
f 56/90/39 53/91/39 55/89/39
f 54/92/40 49/93/40 53/91/40
f 55/89/41 49/94/41 51/95/41
f 52/96/42 54/92/42 56/90/42
f 50/85/37 52/88/37 51/86/37
f 52/88/38 56/90/38 55/89/38
f 56/90/39 54/92/39 53/91/39
f 54/92/40 50/97/40 49/93/40
f 55/89/41 53/91/41 49/94/41
f 52/96/42 50/98/42 54/92/42
o Cube.007_Cube.008
v -0.558646 0.474714 0.088725
v -0.558646 1.097448 0.088725
v -0.558646 0.474714 -0.311275
v -0.558646 1.097448 -0.311275
v -0.167501 0.474714 0.088725
v -0.167501 1.097448 0.088725
v -0.167501 0.474714 -0.311275
v -0.167501 1.097448 -0.311275
vt 0.155444 0.583310
vt 0.086635 0.657312
vt 0.086635 0.583310
vt 0.155444 0.657312
vt 0.086635 0.731314
vt 0.155444 0.731314
vt 0.086635 0.805315
vt 0.155444 0.805315
vt 0.086635 0.879317
vt 0.017826 0.805315
vt 0.017826 0.731314
vt 0.224253 0.731314
vt 0.155444 0.879317
vt 0.224253 0.805315
vn -1.0000 0.0000 0.0000
vn 0.0000 0.0000 -1.0000
vn 1.0000 0.0000 0.0000
vn 0.0000 0.0000 1.0000
vn 0.0000 -1.0000 0.0000
vn 0.0000 1.0000 0.0000
usemtl None
s off
f 58/99/43 59/100/43 57/101/43
f 60/102/44 63/103/44 59/100/44
f 64/104/45 61/105/45 63/103/45
f 62/106/46 57/107/46 61/105/46
f 63/103/47 57/108/47 59/109/47
f 60/110/48 62/106/48 64/104/48
f 58/99/43 60/102/43 59/100/43
f 60/102/44 64/104/44 63/103/44
f 64/104/45 62/106/45 61/105/45
f 62/106/46 58/111/46 57/107/46
f 63/103/47 61/105/47 57/108/47
f 60/110/48 58/112/48 62/106/48
